<svg width="29" height="29" viewBox="0 0 29 29" fill="none" xmlns="http://www.w3.org/2000/svg">
<circle cx="14.1667" cy="14.1667" r="14.1667" fill="#084FFF"/>
<path d="M20.7549 7.00525H7.5778C7.2609 7.00525 7.00488 7.26127 7.00488 7.57817V20.7553C7.00488 21.0721 7.2609 21.3282 7.5778 21.3282H20.7549C21.0718 21.3282 21.3278 21.0721 21.3278 20.7553V7.57817C21.3278 7.26127 21.0718 7.00525 20.7549 7.00525ZM19.1006 11.1858H17.9565C17.0596 11.1858 16.8859 11.6119 16.8859 12.2385V13.6189H19.0272L18.7479 15.7798H16.8859V21.3282H14.6533V15.7816H12.786V13.6189H14.6533V12.0254C14.6533 10.176 15.783 9.16801 17.4338 9.16801C18.2251 9.16801 18.9036 9.22709 19.1024 9.25395V11.1858H19.1006Z" fill="white"/>
</svg>
