<svg width="26" height="26" viewBox="0 0 26 26" fill="none" xmlns="http://www.w3.org/2000/svg">
<path d="M13 0C10.4288 0 7.91543 0.762437 5.77759 2.1909C3.63975 3.61935 1.97351 5.64968 0.989572 8.02512C0.0056327 10.4006 -0.251811 13.0144 0.249797 15.5362C0.751405 18.0579 1.98953 20.3743 3.80762 22.1924C5.6257 24.0105 7.94208 25.2486 10.4638 25.7502C12.9856 26.2518 15.5995 25.9944 17.9749 25.0104C20.3503 24.0265 22.3807 22.3603 23.8091 20.2224C25.2376 18.0846 26 15.5712 26 13C25.9961 9.55338 24.6252 6.24905 22.1881 3.81192C19.751 1.37479 16.4466 0.00390097 13 0ZM13 23C11.3555 23 9.73636 22.5944 8.28602 21.8192C6.83569 21.044 5.59892 19.9231 4.68528 18.5557C3.77163 17.1884 3.20931 15.6168 3.04811 13.9802C2.88692 12.3436 3.13184 10.6925 3.76116 9.17317C4.39049 7.65384 5.3848 6.31316 6.65603 5.26989C7.92726 4.22663 9.43615 3.51297 11.0491 3.19214C12.662 2.87132 14.3291 2.95322 15.9028 3.4306C17.4765 3.90798 18.9082 4.7661 20.0711 5.92896C20.164 6.02179 20.2378 6.13203 20.2881 6.25338C20.3384 6.37473 20.3643 6.50481 20.3644 6.63618C20.3644 6.76755 20.3386 6.89764 20.2883 7.01902C20.2381 7.1404 20.1644 7.25069 20.0715 7.34358C19.9786 7.43648 19.8683 7.51016 19.7469 7.56041C19.6256 7.61067 19.4955 7.63651 19.3641 7.63647C19.2327 7.63643 19.1026 7.6105 18.9813 7.56017C18.8599 7.50984 18.7497 7.43609 18.6569 7.34314C17.3785 6.06502 15.7049 5.25757 13.9088 5.0524C12.1128 4.84722 10.3002 5.25642 8.76644 6.21331C7.23273 7.17019 6.06832 8.61833 5.46301 10.3217C4.8577 12.0251 4.84717 13.8833 5.43314 15.5934C6.01911 17.3035 7.16703 18.7648 8.6898 19.739C10.2126 20.7132 12.0204 21.1429 13.8187 20.9581C15.6169 20.7733 17.2996 19.9849 18.5924 18.7213C19.8852 17.4577 20.7119 15.7936 20.9378 14H13C12.7348 14 12.4804 13.8946 12.2929 13.7071C12.1054 13.5196 12 13.2652 12 13C12 12.7348 12.1054 12.4804 12.2929 12.2929C12.4804 12.1054 12.7348 12 13 12H22C22.2652 12 22.5196 12.1054 22.7071 12.2929C22.8946 12.4804 23 12.7348 23 13C22.997 15.6512 21.9425 18.193 20.0678 20.0678C18.1931 21.9425 15.6513 22.997 13 23Z" fill="white"/>
</svg>
