<svg width="29" height="29" viewBox="0 0 29 29" fill="none" xmlns="http://www.w3.org/2000/svg">
<circle cx="14.165" cy="14.165" r="14.165" fill="#084FFF"/>
<path d="M14.165 7.19736C16.4343 7.19736 16.7032 7.20603 17.5993 7.24692C18.428 7.2847 18.878 7.42316 19.1775 7.53955C19.5742 7.69373 19.8573 7.8779 20.1547 8.17528C20.4521 8.47271 20.6363 8.75583 20.7905 9.15254C20.9069 9.45202 21.0453 9.90203 21.0831 10.7307C21.124 11.6269 21.1327 11.8957 21.1327 14.165C21.1327 16.4343 21.124 16.7031 21.0831 17.5993C21.0453 18.4279 20.9069 18.878 20.7905 19.1774C20.6363 19.5741 20.4521 19.8573 20.1547 20.1547C19.8573 20.4521 19.5742 20.6362 19.1775 20.7904C18.878 20.9068 18.428 21.0453 17.5993 21.0831C16.7033 21.1239 16.4345 21.1326 14.165 21.1326C11.8955 21.1326 11.6268 21.1239 10.7307 21.0831C9.90205 21.0453 9.45203 20.9068 9.15255 20.7904C8.75584 20.6362 8.47272 20.4521 8.17533 20.1547C7.87794 19.8573 7.69373 19.5741 7.53956 19.1774C7.42316 18.878 7.28471 18.4279 7.24692 17.5993C7.20603 16.7031 7.19736 16.4343 7.19736 14.165C7.19736 11.8957 7.20603 11.6269 7.24692 10.7307C7.28471 9.90203 7.42316 9.45202 7.53956 9.15254C7.69373 8.75583 7.8779 8.47271 8.17533 8.17532C8.47272 7.8779 8.75584 7.69373 9.15255 7.53955C9.45203 7.42316 9.90205 7.2847 10.7307 7.24692C11.6269 7.20603 11.8957 7.19736 14.165 7.19736ZM14.165 5.66602C11.8568 5.66602 11.5674 5.6758 10.6609 5.71716C9.75627 5.75842 9.13845 5.90211 8.59785 6.11218C8.03896 6.32938 7.56499 6.61999 7.09248 7.09247C6.61999 7.56499 6.32938 8.03895 6.11222 8.59784C5.90211 9.13843 5.75842 9.75625 5.71716 10.6609C5.6758 11.5674 5.66602 11.8568 5.66602 14.165C5.66602 16.4732 5.6758 16.7626 5.71716 17.6691C5.75842 18.5737 5.90211 19.1915 6.11222 19.7321C6.32938 20.291 6.61999 20.765 7.09248 21.2375C7.56499 21.71 8.03896 22.0006 8.59785 22.2178C9.13845 22.4279 9.75627 22.5716 10.6609 22.6128C11.5674 22.6542 11.8568 22.664 14.165 22.664C16.4732 22.664 16.7626 22.6542 17.6691 22.6128C18.5738 22.5716 19.1916 22.4279 19.7322 22.2178C20.2911 22.0006 20.765 21.71 21.2376 21.2375C21.71 20.765 22.0006 20.291 22.2178 19.7321C22.4279 19.1915 22.5716 18.5737 22.6129 17.6691C22.6542 16.7626 22.664 16.4732 22.664 14.165C22.664 11.8568 22.6542 11.5674 22.6129 10.6609C22.5716 9.75625 22.4279 9.13843 22.2178 8.59784C22.0006 8.03895 21.71 7.56499 21.2376 7.09247C20.765 6.61999 20.2911 6.32938 19.7322 6.11218C19.1916 5.90211 18.5738 5.75842 17.6691 5.71716C16.7626 5.6758 16.4732 5.66602 14.165 5.66602Z" fill="white"/>
<path d="M14.1691 9.80457C11.7587 9.80457 9.80469 11.7585 9.80469 14.1689C9.80469 16.5793 11.7587 18.5332 14.1691 18.5332C16.5794 18.5332 18.5334 16.5793 18.5334 14.1689C18.5334 11.7585 16.5794 9.80457 14.1691 9.80457ZM14.1691 17.0019C12.6044 17.0019 11.336 15.7335 11.336 14.1689C11.336 12.6043 12.6044 11.3359 14.1691 11.3359C15.7337 11.3359 17.002 12.6043 17.002 14.1689C17.002 15.7335 15.7337 17.0019 14.1691 17.0019Z" fill="white"/>
<path d="M19.7253 9.62952C19.7253 10.1928 19.2687 10.6494 18.7054 10.6494C18.1422 10.6494 17.6855 10.1928 17.6855 9.62952C17.6855 9.06625 18.1422 8.60962 18.7054 8.60962C19.2687 8.60962 19.7253 9.06625 19.7253 9.62952Z" fill="white"/>
</svg>
