<svg width="29" height="29" viewBox="0 0 29 29" fill="none" xmlns="http://www.w3.org/2000/svg">
<circle cx="14.165" cy="14.165" r="14.165" fill="#084FFF"/>
<path fill-rule="evenodd" clip-rule="evenodd" d="M10.4642 7.28358C10.4642 8.16541 9.79279 8.87906 8.74277 8.87906C7.73365 8.87906 7.06221 8.16541 7.08299 7.28358C7.06221 6.35888 7.73364 5.66602 8.76288 5.66602C9.79277 5.66602 10.4441 6.35888 10.4642 7.28358ZM7.16741 20.4111V10.1395H10.3597V20.4105H7.16741V20.4111Z" fill="white"/>
<path fill-rule="evenodd" clip-rule="evenodd" d="M12.9184 13.4175C12.9184 12.1363 12.8762 11.0441 12.834 10.1408H15.6068L15.7542 11.548H15.8172C16.2373 10.8967 17.2873 9.91028 18.9887 9.91028C21.0887 9.91028 22.6641 11.2967 22.6641 14.3201V20.4124H19.4718V14.7201C19.4718 13.3961 19.0101 12.4934 17.8549 12.4934C16.9724 12.4934 16.4477 13.1025 16.238 13.6902C16.1535 13.9006 16.112 14.1941 16.112 14.4889V20.4124H12.9197V13.4175H12.9184Z" fill="white"/>
</svg>
