<svg width="29" height="29" viewBox="0 0 29 29" fill="none" xmlns="http://www.w3.org/2000/svg">
<circle cx="14.1667" cy="14.1667" r="14.1667" fill="#084FFF"/>
<path d="M21.6149 9.5529C21.0671 9.78923 20.4709 9.95932 19.8568 10.0256C20.4943 9.64678 20.9718 9.04838 21.1995 8.34262C20.6013 8.69852 19.9458 8.94809 19.2624 9.08025C18.9767 8.77486 18.6312 8.53157 18.2474 8.36555C17.8636 8.19952 17.4497 8.11432 17.0316 8.11524C15.3397 8.11524 13.979 9.48666 13.979 11.1696C13.979 11.4059 14.0076 11.6423 14.0542 11.8696C11.5208 11.7372 9.26139 10.5269 7.75928 8.67384C7.48558 9.14133 7.34215 9.67362 7.34391 10.2153C7.34391 11.2752 7.88281 12.2098 8.70459 12.7594C8.2203 12.7404 7.74736 12.6073 7.32422 12.3709V12.4085C7.32422 13.8927 8.37337 15.1227 9.77165 15.4056C9.50911 15.4738 9.23903 15.5087 8.96777 15.5094C8.76904 15.5094 8.58105 15.4898 8.39128 15.4629C8.77799 16.6732 9.90413 17.5523 11.2451 17.5809C10.196 18.4027 8.88184 18.8861 7.45492 18.8861C7.19889 18.8861 6.96257 18.8771 6.71729 18.8485C8.0708 19.7168 9.67676 20.2181 11.4062 20.2181C17.0208 20.2181 20.0931 15.5667 20.0931 11.5295C20.0931 11.397 20.0931 11.2645 20.0841 11.132C20.6785 10.6969 21.1995 10.158 21.6149 9.5529Z" fill="white"/>
</svg>
