<svg width="29" height="29" viewBox="0 0 29 29" fill="none" xmlns="http://www.w3.org/2000/svg">
<circle cx="14.165" cy="14.165" r="14.165" fill="#084FFF"/>
<path fill-rule="evenodd" clip-rule="evenodd" d="M20.5897 9.75569C21.0183 10.1927 21.1582 11.1851 21.1582 11.1851C21.1582 11.1851 21.3012 12.3509 21.3012 13.5161V14.6089C21.3012 15.7746 21.1582 16.9399 21.1582 16.9399C21.1582 16.9399 21.0183 17.9323 20.5897 18.3694C20.0997 18.8864 19.5564 18.9398 19.2493 18.97C19.2155 18.9733 19.1846 18.9763 19.1569 18.9797C17.1556 19.1255 14.1506 19.13 14.1506 19.13C14.1506 19.13 10.4323 19.0958 9.28819 18.9851C9.23398 18.9749 9.16827 18.9669 9.09386 18.9579C8.73145 18.9142 8.16264 18.8455 7.71104 18.3694C7.28245 17.9323 7.14301 16.9399 7.14301 16.9399C7.14301 16.9399 7 15.7746 7 14.6089V13.5161C7 12.3509 7.14301 11.1851 7.14301 11.1851C7.14301 11.1851 7.28245 10.1927 7.71104 9.75569C8.20213 9.23796 8.74597 9.18513 9.0531 9.15528C9.0864 9.15205 9.11692 9.14908 9.14428 9.14583C11.1456 9 14.1475 9 14.1475 9H14.1537C14.1537 9 17.1556 9 19.1569 9.14583C19.1843 9.14909 19.2148 9.15206 19.2481 9.1553C19.555 9.18514 20.0991 9.23805 20.5897 9.75569ZM12.6738 11.8862L12.6742 15.9329L16.5378 13.9165L12.6738 11.8862Z" fill="white"/>
</svg>
